<svg width="80" height="64" viewBox="0 0 80 64" fill="none" xmlns="http://www.w3.org/2000/svg">
<path d="M15.3474 55.2856C12.8034 55.2856 10.5114 54.7336 8.47141 53.6296C6.43141 52.5016 4.82341 50.9536 3.64741 48.9856C2.49541 47.0176 1.91941 44.8216 1.91941 42.3976C1.91941 39.9736 2.49541 37.7776 3.64741 35.8096C4.82341 33.8416 6.43141 32.3056 8.47141 31.2016C10.5114 30.0736 12.8034 29.5096 15.3474 29.5096C17.8674 29.5096 20.1474 30.0736 22.1874 31.2016C24.2274 32.3056 25.8234 33.8416 26.9754 35.8096C28.1274 37.7536 28.7034 39.9496 28.7034 42.3976C28.7034 44.8456 28.1274 47.0536 26.9754 49.0216C25.8234 50.9656 24.2274 52.5016 22.1874 53.6296C20.1474 54.7336 17.8674 55.2856 15.3474 55.2856ZM15.3474 52.0816C17.1954 52.0816 18.8514 51.6616 20.3154 50.8216C21.8034 49.9816 22.9674 48.8296 23.8074 47.3656C24.6714 45.8776 25.1034 44.2216 25.1034 42.3976C25.1034 40.5736 24.6714 38.9296 23.8074 37.4656C22.9674 35.9776 21.8034 34.8136 20.3154 33.9736C18.8514 33.1336 17.1954 32.7136 15.3474 32.7136C13.4994 32.7136 11.8194 33.1336 10.3074 33.9736C8.81941 34.8136 7.64341 35.9776 6.77941 37.4656C5.93941 38.9296 5.51941 40.5736 5.51941 42.3976C5.51941 44.2216 5.93941 45.8776 6.77941 47.3656C7.64341 48.8296 8.81941 49.9816 10.3074 50.8216C11.8194 51.6616 13.4994 52.0816 15.3474 52.0816ZM57.5698 54.9976L57.5338 36.6376L48.4258 51.9376H46.7698L37.6618 36.7456V54.9976H34.2058V29.7976H37.1578L47.6698 47.5096L58.0378 29.7976H60.9898L61.0258 54.9976H57.5698Z" fill="#333333"/>
<path d="M76.6783 19.6297L75.2649 19.1975C75.0688 19.1376 74.8618 19.194 74.7294 19.3432C74.386 19.7308 74.0092 20.0993 73.6093 20.4385C70.6452 22.9536 66.9246 23.8123 62.85 22.9231C58.7957 22.0385 56.9322 19.6919 54.353 16.444C54.1686 16.2117 53.981 15.9754 53.7891 15.7356C53.7673 15.7082 53.7416 15.6723 53.7144 15.6343C53.6428 15.5342 53.5536 15.4097 53.4281 15.2869C53.2576 15.12 53.0719 14.9645 52.8761 14.8248C52.4716 14.5362 52.2018 14.0819 52.1361 13.5782L51.7024 10.2565C51.6836 10.1125 51.6098 9.97945 51.4971 9.88645C51.3846 9.79339 51.2423 9.74805 51.1017 9.76048L48.9617 9.94871C48.6692 9.97434 48.4637 10.2383 48.5027 10.538L48.9187 13.7243C48.9642 14.0731 48.8514 14.4279 48.6092 14.6976C48.2393 15.1094 48.0509 15.6176 48.0642 16.1672C48.2326 23.116 52.8916 28.2593 60.5271 29.9253C63.8224 30.6444 67.3266 30.2144 70.3941 28.7145C71.0115 28.4126 71.5957 28.0747 72.1441 27.7028C72.9085 27.1843 73.6034 26.5994 74.2215 25.9535C75.3264 24.799 76.1295 23.5061 76.6087 22.1108C76.8142 21.5122 76.971 20.8915 77.0744 20.2659C77.1203 19.9889 76.948 19.7122 76.6783 19.6297ZM49.6332 10.9874L50.7136 10.8924L51.0011 13.0942L50.5648 13.1049L49.9117 13.1208L49.6332 10.9874ZM71.5314 26.787C68.5608 28.8016 64.5296 29.6955 60.7032 28.8605C53.613 27.3134 49.2877 22.5774 49.1329 16.1917C49.1246 15.8487 49.2808 15.6008 49.4132 15.4533C49.728 15.1027 49.9232 14.6683 49.9802 14.21L51.1886 14.1805C51.3811 14.7937 51.7672 15.3338 52.2911 15.7074C52.4387 15.8128 52.5786 15.9298 52.7067 16.0552C52.7595 16.1068 52.8063 16.1724 52.8607 16.2484C52.8956 16.2972 52.9317 16.3476 52.9729 16.3991C53.1639 16.6382 53.3508 16.8734 53.5345 17.1047C56.1583 20.4089 58.2307 23.0185 62.6737 23.988C64.9004 24.4739 67.0495 24.4726 69.0614 23.9843C70.8865 23.5412 72.5656 22.7072 74.0574 21.503L74.0933 21.5205L74.2848 21.614C73.5154 22.8092 72.5337 23.8045 71.3974 24.5751C68.9006 26.2685 65.662 26.8789 62.3163 26.1488C57.1068 25.0121 53.3962 22.2085 51.8678 18.2543C51.758 17.9701 51.4468 17.8197 51.1728 17.9183C50.8987 18.0168 50.7657 18.3272 50.8755 18.6114C52.548 22.9386 56.5485 25.9936 62.1401 27.2137C64.8685 27.809 67.5783 27.5922 69.9764 26.5866C70.7048 26.2812 71.3903 25.91 72.0272 25.4779C73.3342 24.5914 74.4353 23.449 75.2776 22.0991L75.424 22.1706C74.6693 24.0171 73.2854 25.5974 71.5314 26.787ZM75.7706 21.1543L75.5521 21.0476L74.9213 20.7394C75.0568 20.6078 75.1891 20.4732 75.3175 20.336L75.9274 20.5225C75.8817 20.7347 75.8294 20.9455 75.7706 21.1543Z" fill="black"/>
</svg>
